<?xml version="1.0" standalone="no"?>
<!DOCTYPE svg PUBLIC "-//W3C//DTD SVG 20010904//EN"
 "http://www.w3.org/TR/2001/REC-SVG-20010904/DTD/svg10.dtd">
<svg version="1.0" xmlns="http://www.w3.org/2000/svg"
 width="700.000000pt" height="700.000000pt" viewBox="0 0 700.000000 700.000000"
 preserveAspectRatio="xMidYMid meet">
<metadata>
Created by potrace 1.14, written by Peter Selinger 2001-2017
</metadata>
<g transform="translate(0.000000,700.000000) scale(0.100000,-0.100000)"
fill="#000000" stroke="none">
<path d="M0 3500 l0 -3500 3500 0 3500 0 0 3500 0 3500 -3500 0 -3500 0 0
-3500z m4549 -226 c403 -59 674 -284 737 -610 8 -42 14 -98 14 -125 l0 -49
-264 0 -264 0 -7 47 c-17 115 -75 209 -161 259 -135 79 -403 93 -540 28 -64
-30 -139 -108 -153 -160 -18 -64 -13 -135 12 -184 41 -84 141 -126 532 -225
121 -31 269 -70 330 -86 305 -83 516 -268 581 -510 25 -93 23 -279 -5 -382
-80 -300 -332 -503 -716 -575 -142 -26 -467 -23 -605 7 -196 42 -322 96 -448
190 -180 136 -286 335 -307 579 l-7 82 271 0 271 0 0 -43 c0 -135 91 -276 219
-342 98 -49 194 -69 336 -68 190 1 298 32 386 111 67 60 88 108 89 195 0 81
-20 126 -79 180 -81 73 -183 112 -531 201 -254 65 -390 110 -494 162 -196 98
-320 243 -362 421 -19 82 -14 292 9 363 96 292 366 490 742 543 77 11 316 6
414 -9z m-2120 -71 c285 -83 465 -258 543 -528 20 -69 23 -103 23 -240 0 -188
-13 -251 -82 -394 -62 -129 -167 -236 -298 -303 -183 -93 -279 -108 -722 -108
l-333 0 0 -450 0 -450 -272 2 -273 3 -3 1248 -2 1248 672 -4 c650 -3 675 -4
747 -24z m3899 -960 l-3 -268 -272 -3 -273 -2 0 270 0 270 275 0 275 0 -2
-267z m0 -1240 l-3 -268 -272 -3 -273 -2 0 270 0 270 275 0 275 0 -2 -267z"/>
<path d="M1560 2436 l0 -376 269 0 c370 0 465 21 555 120 64 71 80 119 81 240
0 59 -6 125 -13 151 -19 64 -78 137 -137 170 -96 54 -144 61 -462 66 l-293 6
0 -377z"/>
</g>
</svg>
