<?xml version="1.0" encoding="UTF-8"?>
<svg width="200px" height="200px" viewBox="0 0 200 200" version="1.1" xmlns="http://www.w3.org/2000/svg" xmlns:xlink="http://www.w3.org/1999/xlink">
    <title>Logo</title>
    <g id="Logo" stroke="none" stroke-width="1" fill="none" fill-rule="evenodd">
        <rect id="Rectangle" fill="#0086FF" x="0" y="0" width="200" height="200"></rect>
        <g id="PS:" transform="translate(28.900000, 105.900000)" fill="#FFFFFF" fill-rule="nonzero">
            <path d="M15.7,35.3 L15.7,13.9 L27.9,13.9 C29.7,13.9 31.4333333,14.0333333 33.1,14.3 C34.7666667,14.5666667 36.2333333,15.0833333 37.5,15.85 C38.7666667,16.6166667 39.7833333,17.7 40.55,19.1 C41.3166667,20.5 41.7,22.3333333 41.7,24.6 C41.7,26.8666667 41.3166667,28.7 40.55,30.1 C39.7833333,31.5 38.7666667,32.5833333 37.5,33.35 C36.2333333,34.1166667 34.7666667,34.6333333 33.1,34.9 C31.4333333,35.1666667 29.7,35.3 27.9,35.3 L15.7,35.3 Z M0,1.7 L0,73.1 L15.7,73.1 L15.7,47.5 L32.2,47.5 C36.6666667,47.5 40.4666667,46.85 43.6,45.55 C46.7333333,44.25 49.2833333,42.5333333 51.25,40.4 C53.2166667,38.2666667 54.65,35.8166667 55.55,33.05 C56.45,30.2833333 56.9,27.4666667 56.9,24.6 C56.9,21.6666667 56.45,18.8333333 55.55,16.1 C54.65,13.3666667 53.2166667,10.9333333 51.25,8.8 C49.2833333,6.66666667 46.7333333,4.95 43.6,3.65 C40.4666667,2.35 36.6666667,1.7 32.2,1.7 L0,1.7 Z" id="Shape"></path>
            <path d="M80.1,49.4 L64.9,49.4 C64.8333333,53.8 65.6333333,57.6 67.3,60.8 C68.9666667,64 71.2166667,66.6333333 74.05,68.7 C76.8833333,70.7666667 80.15,72.2833333 83.85,73.25 C87.55,74.2166667 91.3666667,74.7 95.3,74.7 C100.166667,74.7 104.45,74.1333333 108.15,73 C111.85,71.8666667 114.95,70.2833333 117.45,68.25 C119.95,66.2166667 121.833333,63.8 123.1,61 C124.366667,58.2 125,55.1666667 125,51.9 C125,47.9 124.15,44.6166667 122.45,42.05 C120.75,39.4833333 118.733333,37.4333333 116.4,35.9 C114.066667,34.3666667 111.716667,33.25 109.35,32.55 C106.983333,31.85 105.133333,31.3666667 103.8,31.1 C99.3333333,29.9666667 95.7166667,29.0333333 92.95,28.3 C90.1833333,27.5666667 88.0166667,26.8333333 86.45,26.1 C84.8833333,25.3666667 83.8333333,24.5666667 83.3,23.7 C82.7666667,22.8333333 82.5,21.7 82.5,20.3 C82.5,18.7666667 82.8333333,17.5 83.5,16.5 C84.1666667,15.5 85.0166667,14.6666667 86.05,14 C87.0833333,13.3333333 88.2333333,12.8666667 89.5,12.6 C90.7666667,12.3333333 92.0333333,12.2 93.3,12.2 C95.2333333,12.2 97.0166667,12.3666667 98.65,12.7 C100.283333,13.0333333 101.733333,13.6 103,14.4 C104.266667,15.2 105.283333,16.3 106.05,17.7 C106.816667,19.1 107.266667,20.8666667 107.4,23 L122.6,23 C122.6,18.8666667 121.816667,15.35 120.25,12.45 C118.683333,9.55 116.566667,7.16666667 113.9,5.3 C111.233333,3.43333333 108.183333,2.08333333 104.75,1.25 C101.316667,0.416666667 97.7333333,0 94,0 C90.8,0 87.6,0.433333333 84.4,1.3 C81.2,2.16666667 78.3333333,3.5 75.8,5.3 C73.2666667,7.1 71.2166667,9.35 69.65,12.05 C68.0833333,14.75 67.3,17.9333333 67.3,21.6 C67.3,24.8666667 67.9166667,27.65 69.15,29.95 C70.3833333,32.25 72,34.1666667 74,35.7 C76,37.2333333 78.2666667,38.4833333 80.8,39.45 C83.3333333,40.4166667 85.9333333,41.2333333 88.6,41.9 C91.2,42.6333333 93.7666667,43.3 96.3,43.9 C98.8333333,44.5 101.1,45.2 103.1,46 C105.1,46.8 106.716667,47.8 107.95,49 C109.183333,50.2 109.8,51.7666667 109.8,53.7 C109.8,55.5 109.333333,56.9833333 108.4,58.15 C107.466667,59.3166667 106.3,60.2333333 104.9,60.9 C103.5,61.5666667 102,62.0166667 100.4,62.25 C98.8,62.4833333 97.3,62.6 95.9,62.6 C93.8333333,62.6 91.8333333,62.35 89.9,61.85 C87.9666667,61.35 86.2833333,60.5833333 84.85,59.55 C83.4166667,58.5166667 82.2666667,57.1666667 81.4,55.5 C80.5333333,53.8333333 80.1,51.8 80.1,49.4 Z" id="Path"></path>
            <path d="M151.9,37.7 L151.9,22.3 L136.2,22.3 L136.2,37.7 L151.9,37.7 Z M136.2,57.7 L136.2,73.1 L151.9,73.1 L151.9,57.7 L136.2,57.7 Z" id="Shape"></path>
        </g>
    </g>
</svg>