<?xml version="1.0" encoding="UTF-8"?>
<svg width="1105px" height="215px" viewBox="0 0 1105 215" version="1.1" xmlns="http://www.w3.org/2000/svg" xmlns:xlink="http://www.w3.org/1999/xlink">
    <title>Logo with Tagline on white</title>
    <g id="Logo-with-Tagline-on-white" stroke="none" stroke-width="1" fill="none" fill-rule="evenodd">
        <rect id="Rectangle" fill="#0086FF" x="0" y="8" width="200" height="200"></rect>
        <g id="PS:" transform="translate(32.075000, 112.900000)" fill="#FFFFFF" fill-rule="nonzero">
            <path d="M15.7,35.3 L15.7,13.9 L27.9,13.9 C29.7,13.9 31.4333333,14.0333333 33.1,14.3 C34.7666667,14.5666667 36.2333333,15.0833333 37.5,15.85 C38.7666667,16.6166667 39.7833333,17.7 40.55,19.1 C41.3166667,20.5 41.7,22.3333333 41.7,24.6 C41.7,26.8666667 41.3166667,28.7 40.55,30.1 C39.7833333,31.5 38.7666667,32.5833333 37.5,33.35 C36.2333333,34.1166667 34.7666667,34.6333333 33.1,34.9 C31.4333333,35.1666667 29.7,35.3 27.9,35.3 L15.7,35.3 Z M0,1.7 L0,73.1 L15.7,73.1 L15.7,47.5 L32.2,47.5 C36.6666667,47.5 40.4666667,46.85 43.6,45.55 C46.7333333,44.25 49.2833333,42.5333333 51.25,40.4 C53.2166667,38.2666667 54.65,35.8166667 55.55,33.05 C56.45,30.2833333 56.9,27.4666667 56.9,24.6 C56.9,21.6666667 56.45,18.8333333 55.55,16.1 C54.65,13.3666667 53.2166667,10.9333333 51.25,8.8 C49.2833333,6.66666667 46.7333333,4.95 43.6,3.65 C40.4666667,2.35 36.6666667,1.7 32.2,1.7 L0,1.7 Z" id="Shape"></path>
            <path d="M80.15,49.4 L64.95,49.4 C64.8833333,53.8 65.6833333,57.6 67.35,60.8 C69.0166667,64 71.2666667,66.6333333 74.1,68.7 C76.9333333,70.7666667 80.2,72.2833333 83.9,73.25 C87.6,74.2166667 91.4166667,74.7 95.35,74.7 C100.216667,74.7 104.5,74.1333333 108.2,73 C111.9,71.8666667 115,70.2833333 117.5,68.25 C120,66.2166667 121.883333,63.8 123.15,61 C124.416667,58.2 125.05,55.1666667 125.05,51.9 C125.05,47.9 124.2,44.6166667 122.5,42.05 C120.8,39.4833333 118.783333,37.4333333 116.45,35.9 C114.116667,34.3666667 111.766667,33.25 109.4,32.55 C107.033333,31.85 105.183333,31.3666667 103.85,31.1 C99.3833333,29.9666667 95.7666667,29.0333333 93,28.3 C90.2333333,27.5666667 88.0666667,26.8333333 86.5,26.1 C84.9333333,25.3666667 83.8833333,24.5666667 83.35,23.7 C82.8166667,22.8333333 82.55,21.7 82.55,20.3 C82.55,18.7666667 82.8833333,17.5 83.55,16.5 C84.2166667,15.5 85.0666667,14.6666667 86.1,14 C87.1333333,13.3333333 88.2833333,12.8666667 89.55,12.6 C90.8166667,12.3333333 92.0833333,12.2 93.35,12.2 C95.2833333,12.2 97.0666667,12.3666667 98.7,12.7 C100.333333,13.0333333 101.783333,13.6 103.05,14.4 C104.316667,15.2 105.333333,16.3 106.1,17.7 C106.866667,19.1 107.316667,20.8666667 107.45,23 L122.65,23 C122.65,18.8666667 121.866667,15.35 120.3,12.45 C118.733333,9.55 116.616667,7.16666667 113.95,5.3 C111.283333,3.43333333 108.233333,2.08333333 104.8,1.25 C101.366667,0.416666667 97.7833333,-1.42108547e-14 94.05,-1.42108547e-14 C90.85,-1.42108547e-14 87.65,0.433333333 84.45,1.3 C81.25,2.16666667 78.3833333,3.5 75.85,5.3 C73.3166667,7.1 71.2666667,9.35 69.7,12.05 C68.1333333,14.75 67.35,17.9333333 67.35,21.6 C67.35,24.8666667 67.9666667,27.65 69.2,29.95 C70.4333333,32.25 72.05,34.1666667 74.05,35.7 C76.05,37.2333333 78.3166667,38.4833333 80.85,39.45 C83.3833333,40.4166667 85.9833333,41.2333333 88.65,41.9 C91.25,42.6333333 93.8166667,43.3 96.35,43.9 C98.8833333,44.5 101.15,45.2 103.15,46 C105.15,46.8 106.766667,47.8 108,49 C109.233333,50.2 109.85,51.7666667 109.85,53.7 C109.85,55.5 109.383333,56.9833333 108.45,58.15 C107.516667,59.3166667 106.35,60.2333333 104.95,60.9 C103.55,61.5666667 102.05,62.0166667 100.45,62.25 C98.85,62.4833333 97.35,62.6 95.95,62.6 C93.8833333,62.6 91.8833333,62.35 89.95,61.85 C88.0166667,61.35 86.3333333,60.5833333 84.9,59.55 C83.4666667,58.5166667 82.3166667,57.1666667 81.45,55.5 C80.5833333,53.8333333 80.15,51.8 80.15,49.4 Z" id="Path"></path>
            <path d="M152,37.7 L152,22.3 L136.3,22.3 L136.3,37.7 L152,37.7 Z M136.3,57.7 L136.3,73.1 L152,73.1 L152,57.7 L136.3,57.7 Z" id="Shape"></path>
        </g>
        <g id="Tagline" transform="translate(231.280000, 134.140000)" fill="#9B9B9B" fill-rule="nonzero">
            <path d="M31.2,14.64 C30.88,13.4 30.44,12.26 29.88,11.22 C29.32,10.18 28.6,9.28 27.72,8.52 C26.84,7.76 25.81,7.17 24.63,6.75 C23.45,6.33 22.08,6.12 20.52,6.12 C18.24,6.12 16.27,6.58 14.61,7.5 C12.95,8.42 11.6,9.65 10.56,11.19 C9.52,12.73 8.75,14.48 8.25,16.44 C7.75,18.4 7.5,20.4 7.5,22.44 C7.5,24.48 7.75,26.48 8.25,28.44 C8.75,30.4 9.52,32.15 10.56,33.69 C11.6,35.23 12.95,36.46 14.61,37.38 C16.27,38.3 18.24,38.76 20.52,38.76 C22.2,38.76 23.68,38.47 24.96,37.89 C26.24,37.31 27.34,36.51 28.26,35.49 C29.18,34.47 29.9,33.28 30.42,31.92 C30.94,30.56 31.28,29.1 31.44,27.54 L38.76,27.54 C38.6,30.1 38.05,32.44 37.11,34.56 C36.17,36.68 34.9,38.51 33.3,40.05 C31.7,41.59 29.82,42.78 27.66,43.62 C25.5,44.46 23.12,44.88 20.52,44.88 C17.32,44.88 14.45,44.29 11.91,43.11 C9.37,41.93 7.22,40.32 5.46,38.28 C3.7,36.24 2.35,33.86 1.41,31.14 C0.47,28.42 0,25.52 0,22.44 C0,19.4 0.47,16.52 1.41,13.8 C2.35,11.08 3.7,8.7 5.46,6.66 C7.22,4.62 9.37,3 11.91,1.8 C14.45,0.6 17.32,0 20.52,0 C22.92,0 25.18,0.33 27.3,0.99 C29.42,1.65 31.29,2.61 32.91,3.87 C34.53,5.13 35.84,6.66 36.84,8.46 C37.84,10.26 38.46,12.32 38.7,14.64 L31.2,14.64 Z" id="Path"></path>
            <path d="M58.86,44.7 C56.38,44.7 54.17,44.29 52.23,43.47 C50.29,42.65 48.65,41.52 47.31,40.08 C45.97,38.64 44.95,36.92 44.25,34.92 C43.55,32.92 43.2,30.72 43.2,28.32 C43.2,25.96 43.55,23.78 44.25,21.78 C44.95,19.78 45.97,18.06 47.31,16.62 C48.65,15.18 50.29,14.05 52.23,13.23 C54.17,12.41 56.38,12 58.86,12 C61.34,12 63.55,12.41 65.49,13.23 C67.43,14.05 69.07,15.18 70.41,16.62 C71.75,18.06 72.77,19.78 73.47,21.78 C74.17,23.78 74.52,25.96 74.52,28.32 C74.52,30.72 74.17,32.92 73.47,34.92 C72.77,36.92 71.75,38.64 70.41,40.08 C69.07,41.52 67.43,42.65 65.49,43.47 C63.55,44.29 61.34,44.7 58.86,44.7 Z M58.86,39.3 C60.38,39.3 61.7,38.98 62.82,38.34 C63.94,37.7 64.86,36.86 65.58,35.82 C66.3,34.78 66.83,33.61 67.17,32.31 C67.51,31.01 67.68,29.68 67.68,28.32 C67.68,27 67.51,25.68 67.17,24.36 C66.83,23.04 66.3,21.87 65.58,20.85 C64.86,19.83 63.94,19 62.82,18.36 C61.7,17.72 60.38,17.4 58.86,17.4 C57.34,17.4 56.02,17.72 54.9,18.36 C53.78,19 52.86,19.83 52.14,20.85 C51.42,21.87 50.89,23.04 50.55,24.36 C50.21,25.68 50.04,27 50.04,28.32 C50.04,29.68 50.21,31.01 50.55,32.31 C50.89,33.61 51.42,34.78 52.14,35.82 C52.86,36.86 53.78,37.7 54.9,38.34 C56.02,38.98 57.34,39.3 58.86,39.3 Z" id="Shape"></path>
            <path d="M80.22,12.84 L86.7,12.84 L86.7,17.4 L86.82,17.52 C87.86,15.8 89.22,14.45 90.9,13.47 C92.58,12.49 94.44,12 96.48,12 C99.88,12 102.56,12.88 104.52,14.64 C106.48,16.4 107.46,19.04 107.46,22.56 L107.46,43.86 L100.62,43.86 L100.62,24.36 C100.54,21.92 100.02,20.15 99.06,19.05 C98.1,17.95 96.6,17.4 94.56,17.4 C93.4,17.4 92.36,17.61 91.44,18.03 C90.52,18.45 89.74,19.03 89.1,19.77 C88.46,20.51 87.96,21.38 87.6,22.38 C87.24,23.38 87.06,24.44 87.06,25.56 L87.06,43.86 L80.22,43.86 L80.22,12.84 Z" id="Path"></path>
            <path d="M114.66,12.84 L121.14,12.84 L121.14,17.4 L121.26,17.52 C122.3,15.8 123.66,14.45 125.34,13.47 C127.02,12.49 128.88,12 130.92,12 C134.32,12 137,12.88 138.96,14.64 C140.92,16.4 141.9,19.04 141.9,22.56 L141.9,43.86 L135.06,43.86 L135.06,24.36 C134.98,21.92 134.46,20.15 133.5,19.05 C132.54,17.95 131.04,17.4 129,17.4 C127.84,17.4 126.8,17.61 125.88,18.03 C124.96,18.45 124.18,19.03 123.54,19.77 C122.9,20.51 122.4,21.38 122.04,22.38 C121.68,23.38 121.5,24.44 121.5,25.56 L121.5,43.86 L114.66,43.86 L114.66,12.84 Z" id="Path"></path>
            <path d="M170.4,25.62 C170.32,24.54 170.09,23.5 169.71,22.5 C169.33,21.5 168.81,20.63 168.15,19.89 C167.49,19.15 166.69,18.55 165.75,18.09 C164.81,17.63 163.76,17.4 162.6,17.4 C161.4,17.4 160.31,17.61 159.33,18.03 C158.35,18.45 157.51,19.03 156.81,19.77 C156.11,20.51 155.55,21.38 155.13,22.38 C154.71,23.38 154.48,24.46 154.44,25.62 L170.4,25.62 Z M154.44,30.12 C154.44,31.32 154.61,32.48 154.95,33.6 C155.29,34.72 155.8,35.7 156.48,36.54 C157.16,37.38 158.02,38.05 159.06,38.55 C160.1,39.05 161.34,39.3 162.78,39.3 C164.78,39.3 166.39,38.87 167.61,38.01 C168.83,37.15 169.74,35.86 170.34,34.14 L176.82,34.14 C176.46,35.82 175.84,37.32 174.96,38.64 C174.08,39.96 173.02,41.07 171.78,41.97 C170.54,42.87 169.15,43.55 167.61,44.01 C166.07,44.47 164.46,44.7 162.78,44.7 C160.34,44.7 158.18,44.3 156.3,43.5 C154.42,42.7 152.83,41.58 151.53,40.14 C150.23,38.7 149.25,36.98 148.59,34.98 C147.93,32.98 147.6,30.78 147.6,28.38 C147.6,26.18 147.95,24.09 148.65,22.11 C149.35,20.13 150.35,18.39 151.65,16.89 C152.95,15.39 154.52,14.2 156.36,13.32 C158.2,12.44 160.28,12 162.6,12 C165.04,12 167.23,12.51 169.17,13.53 C171.11,14.55 172.72,15.9 174,17.58 C175.28,19.26 176.21,21.19 176.79,23.37 C177.37,25.55 177.52,27.8 177.24,30.12 L154.44,30.12 Z" id="Shape"></path>
            <path d="M203.4,23.22 C203.12,21.3 202.35,19.85 201.09,18.87 C199.83,17.89 198.24,17.4 196.32,17.4 C195.44,17.4 194.5,17.55 193.5,17.85 C192.5,18.15 191.58,18.71 190.74,19.53 C189.9,20.35 189.2,21.49 188.64,22.95 C188.08,24.41 187.8,26.32 187.8,28.68 C187.8,29.96 187.95,31.24 188.25,32.52 C188.55,33.8 189.03,34.94 189.69,35.94 C190.35,36.94 191.2,37.75 192.24,38.37 C193.28,38.99 194.54,39.3 196.02,39.3 C198.02,39.3 199.67,38.68 200.97,37.44 C202.27,36.2 203.08,34.46 203.4,32.22 L210.24,32.22 C209.6,36.26 208.07,39.35 205.65,41.49 C203.23,43.63 200.02,44.7 196.02,44.7 C193.58,44.7 191.43,44.29 189.57,43.47 C187.71,42.65 186.14,41.53 184.86,40.11 C183.58,38.69 182.61,37 181.95,35.04 C181.29,33.08 180.96,30.96 180.96,28.68 C180.96,26.36 181.28,24.18 181.92,22.14 C182.56,20.1 183.52,18.33 184.8,16.83 C186.08,15.33 187.67,14.15 189.57,13.29 C191.47,12.43 193.7,12 196.26,12 C198.06,12 199.77,12.23 201.39,12.69 C203.01,13.15 204.45,13.84 205.71,14.76 C206.97,15.68 208,16.84 208.8,18.24 C209.6,19.64 210.08,21.3 210.24,23.22 L203.4,23.22 Z" id="Path"></path>
            <path d="M212.7,12.84 L217.86,12.84 L217.86,3.54 L224.7,3.54 L224.7,12.84 L230.88,12.84 L230.88,17.94 L224.7,17.94 L224.7,34.5 C224.7,35.22 224.73,35.84 224.79,36.36 C224.85,36.88 224.99,37.32 225.21,37.68 C225.43,38.04 225.76,38.31 226.2,38.49 C226.64,38.67 227.24,38.76 228,38.76 C228.48,38.76 228.96,38.75 229.44,38.73 C229.92,38.71 230.4,38.64 230.88,38.52 L230.88,43.8 C230.12,43.88 229.38,43.96 228.66,44.04 C227.94,44.12 227.2,44.16 226.44,44.16 C224.64,44.16 223.19,43.99 222.09,43.65 C220.99,43.31 220.13,42.81 219.51,42.15 C218.89,41.49 218.47,40.66 218.25,39.66 C218.03,38.66 217.9,37.52 217.86,36.24 L217.86,17.94 L212.7,17.94 L212.7,12.84 Z" id="Path"></path>
            <path d="M273.78,25.62 C273.7,24.54 273.47,23.5 273.09,22.5 C272.71,21.5 272.19,20.63 271.53,19.89 C270.87,19.15 270.07,18.55 269.13,18.09 C268.19,17.63 267.14,17.4 265.98,17.4 C264.78,17.4 263.69,17.61 262.71,18.03 C261.73,18.45 260.89,19.03 260.19,19.77 C259.49,20.51 258.93,21.38 258.51,22.38 C258.09,23.38 257.86,24.46 257.82,25.62 L273.78,25.62 Z M257.82,30.12 C257.82,31.32 257.99,32.48 258.33,33.6 C258.67,34.72 259.18,35.7 259.86,36.54 C260.54,37.38 261.4,38.05 262.44,38.55 C263.48,39.05 264.72,39.3 266.16,39.3 C268.16,39.3 269.77,38.87 270.99,38.01 C272.21,37.15 273.12,35.86 273.72,34.14 L280.2,34.14 C279.84,35.82 279.22,37.32 278.34,38.64 C277.46,39.96 276.4,41.07 275.16,41.97 C273.92,42.87 272.53,43.55 270.99,44.01 C269.45,44.47 267.84,44.7 266.16,44.7 C263.72,44.7 261.56,44.3 259.68,43.5 C257.8,42.7 256.21,41.58 254.91,40.14 C253.61,38.7 252.63,36.98 251.97,34.98 C251.31,32.98 250.98,30.78 250.98,28.38 C250.98,26.18 251.33,24.09 252.03,22.11 C252.73,20.13 253.73,18.39 255.03,16.89 C256.33,15.39 257.9,14.2 259.74,13.32 C261.58,12.44 263.66,12 265.98,12 C268.42,12 270.61,12.51 272.55,13.53 C274.49,14.55 276.1,15.9 277.38,17.58 C278.66,19.26 279.59,21.19 280.17,23.37 C280.75,25.55 280.9,27.8 280.62,30.12 L257.82,30.12 Z" id="Shape"></path>
            <polygon id="Path" points="282.78 12.84 290.22 12.84 298.08 36.66 298.2 36.66 305.76 12.84 312.84 12.84 301.74 43.86 294.06 43.86"></polygon>
            <path d="M338.28,25.62 C338.2,24.54 337.97,23.5 337.59,22.5 C337.21,21.5 336.69,20.63 336.03,19.89 C335.37,19.15 334.57,18.55 333.63,18.09 C332.69,17.63 331.64,17.4 330.48,17.4 C329.28,17.4 328.19,17.61 327.21,18.03 C326.23,18.45 325.39,19.03 324.69,19.77 C323.99,20.51 323.43,21.38 323.01,22.38 C322.59,23.38 322.36,24.46 322.32,25.62 L338.28,25.62 Z M322.32,30.12 C322.32,31.32 322.49,32.48 322.83,33.6 C323.17,34.72 323.68,35.7 324.36,36.54 C325.04,37.38 325.9,38.05 326.94,38.55 C327.98,39.05 329.22,39.3 330.66,39.3 C332.66,39.3 334.27,38.87 335.49,38.01 C336.71,37.15 337.62,35.86 338.22,34.14 L344.7,34.14 C344.34,35.82 343.72,37.32 342.84,38.64 C341.96,39.96 340.9,41.07 339.66,41.97 C338.42,42.87 337.03,43.55 335.49,44.01 C333.95,44.47 332.34,44.7 330.66,44.7 C328.22,44.7 326.06,44.3 324.18,43.5 C322.3,42.7 320.71,41.58 319.41,40.14 C318.11,38.7 317.13,36.98 316.47,34.98 C315.81,32.98 315.48,30.78 315.48,28.38 C315.48,26.18 315.83,24.09 316.53,22.11 C317.23,20.13 318.23,18.39 319.53,16.89 C320.83,15.39 322.4,14.2 324.24,13.32 C326.08,12.44 328.16,12 330.48,12 C332.92,12 335.11,12.51 337.05,13.53 C338.99,14.55 340.6,15.9 341.88,17.58 C343.16,19.26 344.09,21.19 344.67,23.37 C345.25,25.55 345.4,27.8 345.12,30.12 L322.32,30.12 Z" id="Shape"></path>
            <path d="M350.34,12.84 L356.76,12.84 L356.76,18.84 L356.88,18.84 C357.08,18 357.47,17.18 358.05,16.38 C358.63,15.58 359.33,14.85 360.15,14.19 C360.97,13.53 361.88,13 362.88,12.6 C363.88,12.2 364.9,12 365.94,12 C366.74,12 367.29,12.02 367.59,12.06 C367.89,12.1 368.2,12.14 368.52,12.18 L368.52,18.78 C368.04,18.7 367.55,18.63 367.05,18.57 C366.55,18.51 366.06,18.48 365.58,18.48 C364.42,18.48 363.33,18.71 362.31,19.17 C361.29,19.63 360.4,20.31 359.64,21.21 C358.88,22.11 358.28,23.22 357.84,24.54 C357.4,25.86 357.18,27.38 357.18,29.1 L357.18,43.86 L350.34,43.86 L350.34,12.84 Z" id="Path"></path>
            <path d="M368.04,12.84 L375.54,12.84 L383.64,36 L383.76,36 L391.62,12.84 L398.76,12.84 L386.7,45.54 C386.14,46.94 385.59,48.28 385.05,49.56 C384.51,50.84 383.85,51.97 383.07,52.95 C382.29,53.93 381.32,54.71 380.16,55.29 C379,55.87 377.52,56.16 375.72,56.16 C374.12,56.16 372.54,56.04 370.98,55.8 L370.98,50.04 C371.54,50.12 372.08,50.21 372.6,50.31 C373.12,50.41 373.66,50.46 374.22,50.46 C375.02,50.46 375.68,50.36 376.2,50.16 C376.72,49.96 377.15,49.67 377.49,49.29 C377.83,48.91 378.12,48.46 378.36,47.94 C378.6,47.42 378.82,46.82 379.02,46.14 L379.8,43.74 L368.04,12.84 Z" id="Path"></path>
            <path d="M399.48,12.84 L404.64,12.84 L404.64,3.54 L411.48,3.54 L411.48,12.84 L417.66,12.84 L417.66,17.94 L411.48,17.94 L411.48,34.5 C411.48,35.22 411.51,35.84 411.57,36.36 C411.63,36.88 411.77,37.32 411.99,37.68 C412.21,38.04 412.54,38.31 412.98,38.49 C413.42,38.67 414.02,38.76 414.78,38.76 C415.26,38.76 415.74,38.75 416.22,38.73 C416.7,38.71 417.18,38.64 417.66,38.52 L417.66,43.8 C416.9,43.88 416.16,43.96 415.44,44.04 C414.72,44.12 413.98,44.16 413.22,44.16 C411.42,44.16 409.97,43.99 408.87,43.65 C407.77,43.31 406.91,42.81 406.29,42.15 C405.67,41.49 405.25,40.66 405.03,39.66 C404.81,38.66 404.68,37.52 404.64,36.24 L404.64,17.94 L399.48,17.94 L399.48,12.84 Z" id="Path"></path>
            <path d="M422.58,1.02 L429.42,1.02 L429.42,16.92 L429.54,16.92 C430.38,15.52 431.63,14.35 433.29,13.41 C434.95,12.47 436.8,12 438.84,12 C442.24,12 444.92,12.88 446.88,14.64 C448.84,16.4 449.82,19.04 449.82,22.56 L449.82,43.86 L442.98,43.86 L442.98,24.36 C442.9,21.92 442.38,20.15 441.42,19.05 C440.46,17.95 438.96,17.4 436.92,17.4 C435.76,17.4 434.72,17.61 433.8,18.03 C432.88,18.45 432.1,19.03 431.46,19.77 C430.82,20.51 430.32,21.38 429.96,22.38 C429.6,23.38 429.42,24.44 429.42,25.56 L429.42,43.86 L422.58,43.86 L422.58,1.02 Z" id="Path"></path>
            <path d="M457.2,1.02 L464.04,1.02 L464.04,7.5 L457.2,7.5 L457.2,1.02 Z M457.2,12.84 L464.04,12.84 L464.04,43.86 L457.2,43.86 L457.2,12.84 Z" id="Shape"></path>
            <path d="M471.48,12.84 L477.96,12.84 L477.96,17.4 L478.08,17.52 C479.12,15.8 480.48,14.45 482.16,13.47 C483.84,12.49 485.7,12 487.74,12 C491.14,12 493.82,12.88 495.78,14.64 C497.74,16.4 498.72,19.04 498.72,22.56 L498.72,43.86 L491.88,43.86 L491.88,24.36 C491.8,21.92 491.28,20.15 490.32,19.05 C489.36,17.95 487.86,17.4 485.82,17.4 C484.66,17.4 483.62,17.61 482.7,18.03 C481.78,18.45 481,19.03 480.36,19.77 C479.72,20.51 479.22,21.38 478.86,22.38 C478.5,23.38 478.32,24.44 478.32,25.56 L478.32,43.86 L471.48,43.86 L471.48,12.84 Z" id="Path"></path>
            <path d="M534.6,42.24 C534.6,46.92 533.29,50.41 530.67,52.71 C528.05,55.01 524.28,56.16 519.36,56.16 C517.8,56.16 516.23,56 514.65,55.68 C513.07,55.36 511.63,54.82 510.33,54.06 C509.03,53.3 507.94,52.3 507.06,51.06 C506.18,49.82 505.66,48.3 505.5,46.5 L512.34,46.5 C512.54,47.46 512.88,48.24 513.36,48.84 C513.84,49.44 514.41,49.91 515.07,50.25 C515.73,50.59 516.46,50.81 517.26,50.91 C518.06,51.01 518.9,51.06 519.78,51.06 C522.54,51.06 524.56,50.38 525.84,49.02 C527.12,47.66 527.76,45.7 527.76,43.14 L527.76,38.4 L527.64,38.4 C526.68,40.12 525.37,41.46 523.71,42.42 C522.05,43.38 520.26,43.86 518.34,43.86 C515.86,43.86 513.75,43.43 512.01,42.57 C510.27,41.71 508.83,40.53 507.69,39.03 C506.55,37.53 505.72,35.8 505.2,33.84 C504.68,31.88 504.42,29.78 504.42,27.54 C504.42,25.46 504.74,23.48 505.38,21.6 C506.02,19.72 506.94,18.07 508.14,16.65 C509.34,15.23 510.81,14.1 512.55,13.26 C514.29,12.42 516.26,12 518.46,12 C520.42,12 522.22,12.41 523.86,13.23 C525.5,14.05 526.76,15.34 527.64,17.1 L527.76,17.1 L527.76,12.84 L534.6,12.84 L534.6,42.24 Z M519.42,38.46 C520.94,38.46 522.23,38.15 523.29,37.53 C524.35,36.91 525.21,36.09 525.87,35.07 C526.53,34.05 527.01,32.89 527.31,31.59 C527.61,30.29 527.76,28.98 527.76,27.66 C527.76,26.34 527.6,25.06 527.28,23.82 C526.96,22.58 526.47,21.48 525.81,20.52 C525.15,19.56 524.29,18.8 523.23,18.24 C522.17,17.68 520.9,17.4 519.42,17.4 C517.9,17.4 516.62,17.72 515.58,18.36 C514.54,19 513.7,19.83 513.06,20.85 C512.42,21.87 511.96,23.03 511.68,24.33 C511.4,25.63 511.26,26.92 511.26,28.2 C511.26,29.48 511.42,30.73 511.74,31.95 C512.06,33.17 512.55,34.26 513.21,35.22 C513.87,36.18 514.71,36.96 515.73,37.56 C516.75,38.16 517.98,38.46 519.42,38.46 Z" id="Shape"></path>
            <polygon id="Path" points="555.36 12.84 562.62 12.84 568.68 36 568.8 36 574.62 12.84 581.52 12.84 587.1 36 587.22 36 593.52 12.84 600.48 12.84 590.76 43.86 583.74 43.86 577.98 20.82 577.86 20.82 572.16 43.86 564.96 43.86"></polygon>
            <path d="M605.04,1.02 L611.88,1.02 L611.88,7.5 L605.04,7.5 L605.04,1.02 Z M605.04,12.84 L611.88,12.84 L611.88,43.86 L605.04,43.86 L605.04,12.84 Z" id="Shape"></path>
            <path d="M616.2,12.84 L621.36,12.84 L621.36,3.54 L628.2,3.54 L628.2,12.84 L634.38,12.84 L634.38,17.94 L628.2,17.94 L628.2,34.5 C628.2,35.22 628.23,35.84 628.29,36.36 C628.35,36.88 628.49,37.32 628.71,37.68 C628.93,38.04 629.26,38.31 629.7,38.49 C630.14,38.67 630.74,38.76 631.5,38.76 C631.98,38.76 632.46,38.75 632.94,38.73 C633.42,38.71 633.9,38.64 634.38,38.52 L634.38,43.8 C633.62,43.88 632.88,43.96 632.16,44.04 C631.44,44.12 630.7,44.16 629.94,44.16 C628.14,44.16 626.69,43.99 625.59,43.65 C624.49,43.31 623.63,42.81 623.01,42.15 C622.39,41.49 621.97,40.66 621.75,39.66 C621.53,38.66 621.4,37.52 621.36,36.24 L621.36,17.94 L616.2,17.94 L616.2,12.84 Z" id="Path"></path>
            <path d="M639.3,1.02 L646.14,1.02 L646.14,16.92 L646.26,16.92 C647.1,15.52 648.35,14.35 650.01,13.41 C651.67,12.47 653.52,12 655.56,12 C658.96,12 661.64,12.88 663.6,14.64 C665.56,16.4 666.54,19.04 666.54,22.56 L666.54,43.86 L659.7,43.86 L659.7,24.36 C659.62,21.92 659.1,20.15 658.14,19.05 C657.18,17.95 655.68,17.4 653.64,17.4 C652.48,17.4 651.44,17.61 650.52,18.03 C649.6,18.45 648.82,19.03 648.18,19.77 C647.54,20.51 647.04,21.38 646.68,22.38 C646.32,23.38 646.14,24.44 646.14,25.56 L646.14,43.86 L639.3,43.86 L639.3,1.02 Z" id="Path"></path>
            <polygon id="Path" points="702.54 27.06 686.46 1.02 695.16 1.02 706.5 20.22 717.66 1.02 726.06 1.02 710.04 27.06 710.04 43.86 702.54 43.86"></polygon>
            <path d="M737.28,1.02 L745.26,1.02 L761.76,43.86 L753.72,43.86 L749.7,32.52 L732.6,32.52 L728.58,43.86 L720.84,43.86 L737.28,1.02 Z M734.64,26.82 L747.72,26.82 L741.3,8.4 L741.12,8.4 L734.64,26.82 Z" id="Shape"></path>
            <polygon id="Path" points="765.72 1.02 776.28 1.02 788.1 34.56 788.22 34.56 799.74 1.02 810.18 1.02 810.18 43.86 803.04 43.86 803.04 10.8 802.92 10.8 791.04 43.86 784.86 43.86 772.98 10.8 772.86 10.8 772.86 43.86 765.72 43.86"></polygon>
            <polygon id="Path" points="819.18 1.02 826.68 1.02 826.68 37.38 848.46 37.38 848.46 43.86 819.18 43.86"></polygon>
        </g>
        <g id="Wordmark" transform="translate(235.080000, 45.520000)" fill="#0086FF" fill-rule="nonzero">
            <path d="M0,1.36 L25.2,1.36 C29.2533333,1.36 32.56,1.94666667 35.12,3.12 C37.68,4.29333333 39.6533333,5.76 41.04,7.52 C42.4266667,9.28 43.3733333,11.2 43.88,13.28 C44.3866667,15.36 44.64,17.28 44.64,19.04 C44.64,20.8 44.3866667,22.7066667 43.88,24.76 C43.3733333,26.8133333 42.4266667,28.72 41.04,30.48 C39.6533333,32.24 37.68,33.6933333 35.12,34.84 C32.56,35.9866667 29.2533333,36.56 25.2,36.56 L10,36.56 L10,58.48 L0,58.48 L0,1.36 Z M10,28.4 L24.64,28.4 C25.76,28.4 26.9066667,28.24 28.08,27.92 C29.2533333,27.6 30.3333333,27.08 31.32,26.36 C32.3066667,25.64 33.1066667,24.68 33.72,23.48 C34.3333333,22.28 34.64,20.7733333 34.64,18.96 C34.64,17.0933333 34.3733333,15.5466667 33.84,14.32 C33.3066667,13.0933333 32.5866667,12.12 31.68,11.4 C30.7733333,10.68 29.7333333,10.1866667 28.56,9.92 C27.3866667,9.65333333 26.1333333,9.52 24.8,9.52 L10,9.52 L10,28.4 Z" id="Shape"></path>
            <polygon id="Path" points="52.32 1.36 61.44 1.36 61.44 58.48 52.32 58.48"></polygon>
            <path d="M106,49.28 C106,50.4 106.146667,51.2 106.44,51.68 C106.733333,52.16 107.306667,52.4 108.16,52.4 C108.426667,52.4 108.746667,52.4 109.12,52.4 C109.493333,52.4 109.92,52.3466667 110.4,52.24 L110.4,58.56 C110.08,58.6666667 109.666667,58.7866667 109.16,58.92 C108.653333,59.0533333 108.133333,59.1733333 107.6,59.28 C107.066667,59.3866667 106.533333,59.4666667 106,59.52 C105.466667,59.5733333 105.013333,59.6 104.64,59.6 C102.773333,59.6 101.226667,59.2266667 100,58.48 C98.7733333,57.7333333 97.9733333,56.4266667 97.6,54.56 C95.7866667,56.32 93.56,57.6 90.92,58.4 C88.28,59.2 85.7333333,59.6 83.28,59.6 C81.4133333,59.6 79.6266667,59.3466667 77.92,58.84 C76.2133333,58.3333333 74.7066667,57.5866667 73.4,56.6 C72.0933333,55.6133333 71.0533333,54.36 70.28,52.84 C69.5066667,51.32 69.12,49.5466667 69.12,47.52 C69.12,44.96 69.5866667,42.88 70.52,41.28 C71.4533333,39.68 72.68,38.4266667 74.2,37.52 C75.72,36.6133333 77.4266667,35.96 79.32,35.56 C81.2133333,35.16 83.12,34.8533333 85.04,34.64 C86.6933333,34.32 88.2666667,34.0933333 89.76,33.96 C91.2533333,33.8266667 92.5733333,33.6 93.72,33.28 C94.8666667,32.96 95.7733333,32.4666667 96.44,31.8 C97.1066667,31.1333333 97.44,30.1333333 97.44,28.8 C97.44,27.6266667 97.16,26.6666667 96.6,25.92 C96.04,25.1733333 95.3466667,24.6 94.52,24.2 C93.6933333,23.8 92.7733333,23.5333333 91.76,23.4 C90.7466667,23.2666667 89.7866667,23.2 88.88,23.2 C86.32,23.2 84.2133333,23.7333333 82.56,24.8 C80.9066667,25.8666667 79.9733333,27.52 79.76,29.76 L70.64,29.76 C70.8,27.0933333 71.44,24.88 72.56,23.12 C73.68,21.36 75.1066667,19.9466667 76.84,18.88 C78.5733333,17.8133333 80.5333333,17.0666667 82.72,16.64 C84.9066667,16.2133333 87.1466667,16 89.44,16 C91.4666667,16 93.4666667,16.2133333 95.44,16.64 C97.4133333,17.0666667 99.1866667,17.76 100.76,18.72 C102.333333,19.68 103.6,20.92 104.56,22.44 C105.52,23.96 106,25.8133333 106,28 L106,49.28 Z M96.88,37.76 C95.4933333,38.6666667 93.7866667,39.2133333 91.76,39.4 C89.7333333,39.5866667 87.7066667,39.8666667 85.68,40.24 C84.72,40.4 83.7866667,40.6266667 82.88,40.92 C81.9733333,41.2133333 81.1733333,41.6133333 80.48,42.12 C79.7866667,42.6266667 79.24,43.2933333 78.84,44.12 C78.44,44.9466667 78.24,45.9466667 78.24,47.12 C78.24,48.1333333 78.5333333,48.9866667 79.12,49.68 C79.7066667,50.3733333 80.4133333,50.92 81.24,51.32 C82.0666667,51.72 82.9733333,52 83.96,52.16 C84.9466667,52.32 85.84,52.4 86.64,52.4 C87.6533333,52.4 88.7466667,52.2666667 89.92,52 C91.0933333,51.7333333 92.2,51.28 93.24,50.64 C94.28,50 95.1466667,49.1866667 95.84,48.2 C96.5333333,47.2133333 96.88,46 96.88,44.56 L96.88,37.76 Z" id="Shape"></path>
            <path d="M111.68,17.12 L118.56,17.12 L118.56,4.72 L127.68,4.72 L127.68,17.12 L135.92,17.12 L135.92,23.92 L127.68,23.92 L127.68,46 C127.68,46.96 127.72,47.7866667 127.8,48.48 C127.88,49.1733333 128.066667,49.76 128.36,50.24 C128.653333,50.72 129.093333,51.08 129.68,51.32 C130.266667,51.56 131.066667,51.68 132.08,51.68 C132.72,51.68 133.36,51.6666667 134,51.64 C134.64,51.6133333 135.28,51.52 135.92,51.36 L135.92,58.4 C134.906667,58.5066667 133.92,58.6133333 132.96,58.72 C132,58.8266667 131.013333,58.88 130,58.88 C127.6,58.88 125.666667,58.6533333 124.2,58.2 C122.733333,57.7466667 121.586667,57.08 120.76,56.2 C119.933333,55.32 119.373333,54.2133333 119.08,52.88 C118.786667,51.5466667 118.613333,50.0266667 118.56,48.32 L118.56,23.92 L111.68,23.92 L111.68,17.12 Z" id="Path"></path>
            <path d="M138.4,17.12 L145.2,17.12 L145.2,13.68 C145.2,11.0666667 145.52,8.94666667 146.16,7.32 C146.8,5.69333333 147.653333,4.44 148.72,3.56 C149.786667,2.68 151,2.09333333 152.36,1.8 C153.72,1.50666667 155.146667,1.36 156.64,1.36 C159.573333,1.36 161.706667,1.54666667 163.04,1.92 L163.04,9.04 C162.453333,8.88 161.826667,8.76 161.16,8.68 C160.493333,8.6 159.706667,8.56 158.8,8.56 C157.573333,8.56 156.52,8.85333333 155.64,9.44 C154.76,10.0266667 154.32,11.1733333 154.32,12.88 L154.32,17.12 L162.08,17.12 L162.08,23.92 L154.32,23.92 L154.32,58.48 L145.2,58.48 L145.2,23.92 L138.4,23.92 L138.4,17.12 Z" id="Path"></path>
            <path d="M186.64,59.6 C183.333333,59.6 180.386667,59.0533333 177.8,57.96 C175.213333,56.8666667 173.026667,55.36 171.24,53.44 C169.453333,51.52 168.093333,49.2266667 167.16,46.56 C166.226667,43.8933333 165.76,40.96 165.76,37.76 C165.76,34.6133333 166.226667,31.7066667 167.16,29.04 C168.093333,26.3733333 169.453333,24.08 171.24,22.16 C173.026667,20.24 175.213333,18.7333333 177.8,17.64 C180.386667,16.5466667 183.333333,16 186.64,16 C189.946667,16 192.893333,16.5466667 195.48,17.64 C198.066667,18.7333333 200.253333,20.24 202.04,22.16 C203.826667,24.08 205.186667,26.3733333 206.12,29.04 C207.053333,31.7066667 207.52,34.6133333 207.52,37.76 C207.52,40.96 207.053333,43.8933333 206.12,46.56 C205.186667,49.2266667 203.826667,51.52 202.04,53.44 C200.253333,55.36 198.066667,56.8666667 195.48,57.96 C192.893333,59.0533333 189.946667,59.6 186.64,59.6 Z M186.64,52.4 C188.666667,52.4 190.426667,51.9733333 191.92,51.12 C193.413333,50.2666667 194.64,49.1466667 195.6,47.76 C196.56,46.3733333 197.266667,44.8133333 197.72,43.08 C198.173333,41.3466667 198.4,39.5733333 198.4,37.76 C198.4,36 198.173333,34.24 197.72,32.48 C197.266667,30.72 196.56,29.16 195.6,27.8 C194.64,26.44 193.413333,25.3333333 191.92,24.48 C190.426667,23.6266667 188.666667,23.2 186.64,23.2 C184.613333,23.2 182.853333,23.6266667 181.36,24.48 C179.866667,25.3333333 178.64,26.44 177.68,27.8 C176.72,29.16 176.013333,30.72 175.56,32.48 C175.106667,34.24 174.88,36 174.88,37.76 C174.88,39.5733333 175.106667,41.3466667 175.56,43.08 C176.013333,44.8133333 176.72,46.3733333 177.68,47.76 C178.64,49.1466667 179.866667,50.2666667 181.36,51.12 C182.853333,51.9733333 184.613333,52.4 186.64,52.4 Z" id="Shape"></path>
            <path d="M215.12,17.12 L223.68,17.12 L223.68,25.12 L223.84,25.12 C224.106667,24 224.626667,22.9066667 225.4,21.84 C226.173333,20.7733333 227.106667,19.8 228.2,18.92 C229.293333,18.04 230.506667,17.3333333 231.84,16.8 C233.173333,16.2666667 234.533333,16 235.92,16 C236.986667,16 237.72,16.0266667 238.12,16.08 C238.52,16.1333333 238.933333,16.1866667 239.36,16.24 L239.36,25.04 C238.72,24.9333333 238.066667,24.84 237.4,24.76 C236.733333,24.68 236.08,24.64 235.44,24.64 C233.893333,24.64 232.44,24.9466667 231.08,25.56 C229.72,26.1733333 228.533333,27.08 227.52,28.28 C226.506667,29.48 225.706667,30.96 225.12,32.72 C224.533333,34.48 224.24,36.5066667 224.24,38.8 L224.24,58.48 L215.12,58.48 L215.12,17.12 Z" id="Path"></path>
            <path d="M243.28,17.12 L251.92,17.12 L251.92,22.88 L252.16,22.88 C252.853333,21.8666667 253.6,20.9333333 254.4,20.08 C255.2,19.2266667 256.093333,18.5066667 257.08,17.92 C258.066667,17.3333333 259.2,16.8666667 260.48,16.52 C261.76,16.1733333 263.226667,16 264.88,16 C267.386667,16 269.72,16.56 271.88,17.68 C274.04,18.8 275.573333,20.5333333 276.48,22.88 C278.026667,20.7466667 279.813333,19.0666667 281.84,17.84 C283.866667,16.6133333 286.4,16 289.44,16 C293.813333,16 297.213333,17.0666667 299.64,19.2 C302.066667,21.3333333 303.28,24.9066667 303.28,29.92 L303.28,58.48 L294.16,58.48 L294.16,34.32 C294.16,32.6666667 294.106667,31.16 294,29.8 C293.893333,28.44 293.586667,27.2666667 293.08,26.28 C292.573333,25.2933333 291.813333,24.5333333 290.8,24 C289.786667,23.4666667 288.4,23.2 286.64,23.2 C283.546667,23.2 281.306667,24.16 279.92,26.08 C278.533333,28 277.84,30.72 277.84,34.24 L277.84,58.48 L268.72,58.48 L268.72,31.92 C268.72,29.04 268.2,26.8666667 267.16,25.4 C266.12,23.9333333 264.213333,23.2 261.44,23.2 C260.266667,23.2 259.133333,23.44 258.04,23.92 C256.946667,24.4 255.986667,25.0933333 255.16,26 C254.333333,26.9066667 253.666667,28.0266667 253.16,29.36 C252.653333,30.6933333 252.4,32.2133333 252.4,33.92 L252.4,58.48 L243.28,58.48 L243.28,17.12 Z" id="Path"></path>
            <path d="M320.72,39.44 C320.72,41.6266667 321.093333,43.4933333 321.84,45.04 C322.586667,46.5866667 323.626667,47.8533333 324.96,48.84 C326.293333,49.8266667 327.826667,50.5466667 329.56,51 C331.293333,51.4533333 333.173333,51.68 335.2,51.68 C337.386667,51.68 339.253333,51.4266667 340.8,50.92 C342.346667,50.4133333 343.6,49.76 344.56,48.96 C345.52,48.16 346.213333,47.24 346.64,46.2 C347.066667,45.16 347.28,44.1066667 347.28,43.04 C347.28,40.8533333 346.786667,39.24 345.8,38.2 C344.813333,37.16 343.733333,36.4266667 342.56,36 C340.533333,35.2533333 338.173333,34.5466667 335.48,33.88 C332.786667,33.2133333 329.466667,32.3466667 325.52,31.28 C323.066667,30.64 321.026667,29.8 319.4,28.76 C317.773333,27.72 316.48,26.56 315.52,25.28 C314.56,24 313.88,22.64 313.48,21.2 C313.08,19.76 312.88,18.2933333 312.88,16.8 C312.88,13.92 313.48,11.4266667 314.68,9.32 C315.88,7.21333333 317.466667,5.46666667 319.44,4.08 C321.413333,2.69333333 323.653333,1.66666667 326.16,1 C328.666667,0.333333333 331.2,-1.42108547e-14 333.76,-1.42108547e-14 C336.746667,-1.42108547e-14 339.56,0.386666667 342.2,1.16 C344.84,1.93333333 347.16,3.09333333 349.16,4.64 C351.16,6.18666667 352.746667,8.09333333 353.92,10.36 C355.093333,12.6266667 355.68,15.2533333 355.68,18.24 L345.68,18.24 C345.413333,14.56 344.16,11.96 341.92,10.44 C339.68,8.92 336.826667,8.16 333.36,8.16 C332.186667,8.16 330.986667,8.28 329.76,8.52 C328.533333,8.76 327.413333,9.16 326.4,9.72 C325.386667,10.28 324.546667,11.04 323.88,12 C323.213333,12.96 322.88,14.16 322.88,15.6 C322.88,17.6266667 323.506667,19.2133333 324.76,20.36 C326.013333,21.5066667 327.653333,22.3733333 329.68,22.96 C329.893333,23.0133333 330.733333,23.24 332.2,23.64 C333.666667,24.04 335.306667,24.48 337.12,24.96 C338.933333,25.44 340.706667,25.9066667 342.44,26.36 C344.173333,26.8133333 345.413333,27.1466667 346.16,27.36 C348.026667,27.9466667 349.653333,28.7466667 351.04,29.76 C352.426667,30.7733333 353.586667,31.9333333 354.52,33.24 C355.453333,34.5466667 356.146667,35.9466667 356.6,37.44 C357.053333,38.9333333 357.28,40.4266667 357.28,41.92 C357.28,45.12 356.626667,47.8533333 355.32,50.12 C354.013333,52.3866667 352.293333,54.24 350.16,55.68 C348.026667,57.12 345.6,58.1733333 342.88,58.84 C340.16,59.5066667 337.386667,59.84 334.56,59.84 C331.306667,59.84 328.24,59.44 325.36,58.64 C322.48,57.84 319.973333,56.6133333 317.84,54.96 C315.706667,53.3066667 314,51.1866667 312.72,48.6 C311.44,46.0133333 310.773333,42.96 310.72,39.44 L320.72,39.44 Z" id="Path"></path>
            <path d="M392.64,30.96 C392.266667,28.4 391.24,26.4666667 389.56,25.16 C387.88,23.8533333 385.76,23.2 383.2,23.2 C382.026667,23.2 380.773333,23.4 379.44,23.8 C378.106667,24.2 376.88,24.9466667 375.76,26.04 C374.64,27.1333333 373.706667,28.6533333 372.96,30.6 C372.213333,32.5466667 371.84,35.0933333 371.84,38.24 C371.84,39.9466667 372.04,41.6533333 372.44,43.36 C372.84,45.0666667 373.48,46.5866667 374.36,47.92 C375.24,49.2533333 376.373333,50.3333333 377.76,51.16 C379.146667,51.9866667 380.826667,52.4 382.8,52.4 C385.466667,52.4 387.666667,51.5733333 389.4,49.92 C391.133333,48.2666667 392.213333,45.9466667 392.64,42.96 L401.76,42.96 C400.906667,48.3466667 398.866667,52.4666667 395.64,55.32 C392.413333,58.1733333 388.133333,59.6 382.8,59.6 C379.546667,59.6 376.68,59.0533333 374.2,57.96 C371.72,56.8666667 369.626667,55.3733333 367.92,53.48 C366.213333,51.5866667 364.92,49.3333333 364.04,46.72 C363.16,44.1066667 362.72,41.28 362.72,38.24 C362.72,35.1466667 363.146667,32.24 364,29.52 C364.853333,26.8 366.133333,24.44 367.84,22.44 C369.546667,20.44 371.666667,18.8666667 374.2,17.72 C376.733333,16.5733333 379.706667,16 383.12,16 C385.52,16 387.8,16.3066667 389.96,16.92 C392.12,17.5333333 394.04,18.4533333 395.72,19.68 C397.4,20.9066667 398.773333,22.4533333 399.84,24.32 C400.906667,26.1866667 401.546667,28.4 401.76,30.96 L392.64,30.96 Z" id="Path"></path>
            <path d="M409.2,17.12 L417.76,17.12 L417.76,25.12 L417.92,25.12 C418.186667,24 418.706667,22.9066667 419.48,21.84 C420.253333,20.7733333 421.186667,19.8 422.28,18.92 C423.373333,18.04 424.586667,17.3333333 425.92,16.8 C427.253333,16.2666667 428.613333,16 430,16 C431.066667,16 431.8,16.0266667 432.2,16.08 C432.6,16.1333333 433.013333,16.1866667 433.44,16.24 L433.44,25.04 C432.8,24.9333333 432.146667,24.84 431.48,24.76 C430.813333,24.68 430.16,24.64 429.52,24.64 C427.973333,24.64 426.52,24.9466667 425.16,25.56 C423.8,26.1733333 422.613333,27.08 421.6,28.28 C420.586667,29.48 419.786667,30.96 419.2,32.72 C418.613333,34.48 418.32,36.5066667 418.32,38.8 L418.32,58.48 L409.2,58.48 L409.2,17.12 Z" id="Path"></path>
            <path d="M437.6,1.36 L446.72,1.36 L446.72,10 L437.6,10 L437.6,1.36 Z M437.6,17.12 L446.72,17.12 L446.72,58.48 L437.6,58.48 L437.6,17.12 Z" id="Shape"></path>
            <path d="M456.88,17.12 L465.52,17.12 L465.52,22.72 L465.68,22.72 C466.96,20.32 468.746667,18.6 471.04,17.56 C473.333333,16.52 475.813333,16 478.48,16 C481.733333,16 484.573333,16.5733333 487,17.72 C489.426667,18.8666667 491.44,20.44 493.04,22.44 C494.64,24.44 495.84,26.7733333 496.64,29.44 C497.44,32.1066667 497.84,34.96 497.84,38 C497.84,40.7733333 497.48,43.4666667 496.76,46.08 C496.04,48.6933333 494.946667,51 493.48,53 C492.013333,55 490.16,56.6 487.92,57.8 C485.68,59 483.04,59.6 480,59.6 C478.666667,59.6 477.333333,59.48 476,59.24 C474.666667,59 473.386667,58.6133333 472.16,58.08 C470.933333,57.5466667 469.8,56.8666667 468.76,56.04 C467.72,55.2133333 466.853333,54.24 466.16,53.12 L466,53.12 L466,73.76 L456.88,73.76 L456.88,17.12 Z M488.72,37.84 C488.72,35.9733333 488.48,34.16 488,32.4 C487.52,30.64 486.8,29.08 485.84,27.72 C484.88,26.36 483.68,25.2666667 482.24,24.44 C480.8,23.6133333 479.146667,23.2 477.28,23.2 C473.44,23.2 470.546667,24.5333333 468.6,27.2 C466.653333,29.8666667 465.68,33.4133333 465.68,37.84 C465.68,39.92 465.933333,41.8533333 466.44,43.64 C466.946667,45.4266667 467.706667,46.96 468.72,48.24 C469.733333,49.52 470.946667,50.5333333 472.36,51.28 C473.773333,52.0266667 475.413333,52.4 477.28,52.4 C479.36,52.4 481.12,51.9733333 482.56,51.12 C484,50.2666667 485.186667,49.16 486.12,47.8 C487.053333,46.44 487.72,44.8933333 488.12,43.16 C488.52,41.4266667 488.72,39.6533333 488.72,37.84 Z" id="Shape"></path>
            <path d="M501.36,17.12 L508.24,17.12 L508.24,4.72 L517.36,4.72 L517.36,17.12 L525.6,17.12 L525.6,23.92 L517.36,23.92 L517.36,46 C517.36,46.96 517.4,47.7866667 517.48,48.48 C517.56,49.1733333 517.746667,49.76 518.04,50.24 C518.333333,50.72 518.773333,51.08 519.36,51.32 C519.946667,51.56 520.746667,51.68 521.76,51.68 C522.4,51.68 523.04,51.6666667 523.68,51.64 C524.32,51.6133333 524.96,51.52 525.6,51.36 L525.6,58.4 C524.586667,58.5066667 523.6,58.6133333 522.64,58.72 C521.68,58.8266667 520.693333,58.88 519.68,58.88 C517.28,58.88 515.346667,58.6533333 513.88,58.2 C512.413333,57.7466667 511.266667,57.08 510.44,56.2 C509.613333,55.32 509.053333,54.2133333 508.76,52.88 C508.466667,51.5466667 508.293333,50.0266667 508.24,48.32 L508.24,23.92 L501.36,23.92 L501.36,17.12 Z" id="Path"></path>
        </g>
    </g>
</svg>