<?xml version="1.0" encoding="UTF-8"?>
<svg width="1451px" height="212px" viewBox="0 0 1451 212" version="1.1" xmlns="http://www.w3.org/2000/svg" xmlns:xlink="http://www.w3.org/1999/xlink">
    <title>Logo with Wordmark on dark</title>
    <g id="Logo-with-Wordmark-on-dark" stroke="none" stroke-width="1" fill="none" fill-rule="evenodd">
        <g id="Logo" transform="translate(0.000000, 6.000000)">
            <rect id="Rectangle" fill="#0086FF" x="0" y="0" width="200" height="200"></rect>
            <g id="PS:" transform="translate(28.900000, 105.900000)" fill="#FFFFFF" fill-rule="nonzero">
                <path d="M15.7,35.3 L15.7,13.9 L27.9,13.9 C29.7,13.9 31.4333333,14.0333333 33.1,14.3 C34.7666667,14.5666667 36.2333333,15.0833333 37.5,15.85 C38.7666667,16.6166667 39.7833333,17.7 40.55,19.1 C41.3166667,20.5 41.7,22.3333333 41.7,24.6 C41.7,26.8666667 41.3166667,28.7 40.55,30.1 C39.7833333,31.5 38.7666667,32.5833333 37.5,33.35 C36.2333333,34.1166667 34.7666667,34.6333333 33.1,34.9 C31.4333333,35.1666667 29.7,35.3 27.9,35.3 L15.7,35.3 Z M0,1.7 L0,73.1 L15.7,73.1 L15.7,47.5 L32.2,47.5 C36.6666667,47.5 40.4666667,46.85 43.6,45.55 C46.7333333,44.25 49.2833333,42.5333333 51.25,40.4 C53.2166667,38.2666667 54.65,35.8166667 55.55,33.05 C56.45,30.2833333 56.9,27.4666667 56.9,24.6 C56.9,21.6666667 56.45,18.8333333 55.55,16.1 C54.65,13.3666667 53.2166667,10.9333333 51.25,8.8 C49.2833333,6.66666667 46.7333333,4.95 43.6,3.65 C40.4666667,2.35 36.6666667,1.7 32.2,1.7 L0,1.7 Z" id="Shape"></path>
                <path d="M80.1,49.4 L64.9,49.4 C64.8333333,53.8 65.6333333,57.6 67.3,60.8 C68.9666667,64 71.2166667,66.6333333 74.05,68.7 C76.8833333,70.7666667 80.15,72.2833333 83.85,73.25 C87.55,74.2166667 91.3666667,74.7 95.3,74.7 C100.166667,74.7 104.45,74.1333333 108.15,73 C111.85,71.8666667 114.95,70.2833333 117.45,68.25 C119.95,66.2166667 121.833333,63.8 123.1,61 C124.366667,58.2 125,55.1666667 125,51.9 C125,47.9 124.15,44.6166667 122.45,42.05 C120.75,39.4833333 118.733333,37.4333333 116.4,35.9 C114.066667,34.3666667 111.716667,33.25 109.35,32.55 C106.983333,31.85 105.133333,31.3666667 103.8,31.1 C99.3333333,29.9666667 95.7166667,29.0333333 92.95,28.3 C90.1833333,27.5666667 88.0166667,26.8333333 86.45,26.1 C84.8833333,25.3666667 83.8333333,24.5666667 83.3,23.7 C82.7666667,22.8333333 82.5,21.7 82.5,20.3 C82.5,18.7666667 82.8333333,17.5 83.5,16.5 C84.1666667,15.5 85.0166667,14.6666667 86.05,14 C87.0833333,13.3333333 88.2333333,12.8666667 89.5,12.6 C90.7666667,12.3333333 92.0333333,12.2 93.3,12.2 C95.2333333,12.2 97.0166667,12.3666667 98.65,12.7 C100.283333,13.0333333 101.733333,13.6 103,14.4 C104.266667,15.2 105.283333,16.3 106.05,17.7 C106.816667,19.1 107.266667,20.8666667 107.4,23 L122.6,23 C122.6,18.8666667 121.816667,15.35 120.25,12.45 C118.683333,9.55 116.566667,7.16666667 113.9,5.3 C111.233333,3.43333333 108.183333,2.08333333 104.75,1.25 C101.316667,0.416666667 97.7333333,0 94,0 C90.8,0 87.6,0.433333333 84.4,1.3 C81.2,2.16666667 78.3333333,3.5 75.8,5.3 C73.2666667,7.1 71.2166667,9.35 69.65,12.05 C68.0833333,14.75 67.3,17.9333333 67.3,21.6 C67.3,24.8666667 67.9166667,27.65 69.15,29.95 C70.3833333,32.25 72,34.1666667 74,35.7 C76,37.2333333 78.2666667,38.4833333 80.8,39.45 C83.3333333,40.4166667 85.9333333,41.2333333 88.6,41.9 C91.2,42.6333333 93.7666667,43.3 96.3,43.9 C98.8333333,44.5 101.1,45.2 103.1,46 C105.1,46.8 106.716667,47.8 107.95,49 C109.183333,50.2 109.8,51.7666667 109.8,53.7 C109.8,55.5 109.333333,56.9833333 108.4,58.15 C107.466667,59.3166667 106.3,60.2333333 104.9,60.9 C103.5,61.5666667 102,62.0166667 100.4,62.25 C98.8,62.4833333 97.3,62.6 95.9,62.6 C93.8333333,62.6 91.8333333,62.35 89.9,61.85 C87.9666667,61.35 86.2833333,60.5833333 84.85,59.55 C83.4166667,58.5166667 82.2666667,57.1666667 81.4,55.5 C80.5333333,53.8333333 80.1,51.8 80.1,49.4 Z" id="Path"></path>
                <path d="M151.9,37.7 L151.9,22.3 L136.2,22.3 L136.2,37.7 L151.9,37.7 Z M136.2,57.7 L136.2,73.1 L151.9,73.1 L151.9,57.7 L136.2,57.7 Z" id="Shape"></path>
            </g>
        </g>
        <g id="Wordmark" transform="translate(263.680000, 42.420000)" fill="#FFFFFF" fill-rule="nonzero">
            <path d="M5.68434189e-14,3.06 L56.7,3.06 C65.82,3.06 73.26,4.38 79.02,7.02 C84.78,9.66 89.22,12.96 92.34,16.92 C95.46,20.88 97.59,25.2 98.73,29.88 C99.87,34.56 100.44,38.88 100.44,42.84 C100.44,46.8 99.87,51.09 98.73,55.71 C97.59,60.33 95.46,64.62 92.34,68.58 C89.22,72.54 84.78,75.81 79.02,78.39 C73.26,80.97 65.82,82.26 56.7,82.26 L22.5,82.26 L22.5,131.58 L5.68434189e-14,131.58 L5.68434189e-14,3.06 Z M22.5,63.9 L55.44,63.9 C57.96,63.9 60.54,63.54 63.18,62.82 C65.82,62.1 68.25,60.93 70.47,59.31 C72.69,57.69 74.49,55.53 75.87,52.83 C77.25,50.13 77.94,46.74 77.94,42.66 C77.94,38.46 77.34,34.98 76.14,32.22 C74.94,29.46 73.32,27.27 71.28,25.65 C69.24,24.03 66.9,22.92 64.26,22.32 C61.62,21.72 58.8,21.42 55.8,21.42 L22.5,21.42 L22.5,63.9 Z" id="Shape"></path>
            <polygon id="Path" points="117.72 3.06 138.24 3.06 138.24 131.58 117.72 131.58"></polygon>
            <path d="M238.5,110.88 C238.5,113.4 238.83,115.2 239.49,116.28 C240.15,117.36 241.44,117.9 243.36,117.9 C243.96,117.9 244.68,117.9 245.52,117.9 C246.36,117.9 247.32,117.78 248.4,117.54 L248.4,131.76 C247.68,132 246.75,132.27 245.61,132.57 C244.47,132.87 243.3,133.14 242.1,133.38 C240.9,133.62 239.7,133.8 238.5,133.92 C237.3,134.04 236.28,134.1 235.44,134.1 C231.24,134.1 227.76,133.26 225,131.58 C222.24,129.9 220.44,126.96 219.6,122.76 C215.52,126.72 210.51,129.6 204.57,131.4 C198.63,133.2 192.9,134.1 187.38,134.1 C183.18,134.1 179.16,133.53 175.32,132.39 C171.48,131.25 168.09,129.57 165.15,127.35 C162.21,125.13 159.87,122.31 158.13,118.89 C156.39,115.47 155.52,111.48 155.52,106.92 C155.52,101.16 156.57,96.48 158.67,92.88 C160.77,89.28 163.53,86.46 166.95,84.42 C170.37,82.38 174.21,80.91 178.47,80.01 C182.73,79.11 187.02,78.42 191.34,77.94 C195.06,77.22 198.6,76.71 201.96,76.41 C205.32,76.11 208.29,75.6 210.87,74.88 C213.45,74.16 215.49,73.05 216.99,71.55 C218.49,70.05 219.24,67.8 219.24,64.8 C219.24,62.16 218.61,60 217.35,58.32 C216.09,56.64 214.53,55.35 212.67,54.45 C210.81,53.55 208.74,52.95 206.46,52.65 C204.18,52.35 202.02,52.2 199.98,52.2 C194.22,52.2 189.48,53.4 185.76,55.8 C182.04,58.2 179.94,61.92 179.46,66.96 L158.94,66.96 C159.3,60.96 160.74,55.98 163.26,52.02 C165.78,48.06 168.99,44.88 172.89,42.48 C176.79,40.08 181.2,38.4 186.12,37.44 C191.04,36.48 196.08,36 201.24,36 C205.8,36 210.3,36.48 214.74,37.44 C219.18,38.4 223.17,39.96 226.71,42.12 C230.25,44.28 233.1,47.07 235.26,50.49 C237.42,53.91 238.5,58.08 238.5,63 L238.5,110.88 Z M217.98,84.96 C214.86,87 211.02,88.23 206.46,88.65 C201.9,89.07 197.34,89.7 192.78,90.54 C190.62,90.9 188.52,91.41 186.48,92.07 C184.44,92.73 182.64,93.63 181.08,94.77 C179.52,95.91 178.29,97.41 177.39,99.27 C176.49,101.13 176.04,103.38 176.04,106.02 C176.04,108.3 176.7,110.22 178.02,111.78 C179.34,113.34 180.93,114.57 182.79,115.47 C184.65,116.37 186.69,117 188.91,117.36 C191.13,117.72 193.14,117.9 194.94,117.9 C197.22,117.9 199.68,117.6 202.32,117 C204.96,116.4 207.45,115.38 209.79,113.94 C212.13,112.5 214.08,110.67 215.64,108.45 C217.2,106.23 217.98,103.5 217.98,100.26 L217.98,84.96 Z" id="Shape"></path>
            <path d="M251.28,38.52 L266.76,38.52 L266.76,10.62 L287.28,10.62 L287.28,38.52 L305.82,38.52 L305.82,53.82 L287.28,53.82 L287.28,103.5 C287.28,105.66 287.37,107.52 287.55,109.08 C287.73,110.64 288.15,111.96 288.81,113.04 C289.47,114.12 290.46,114.93 291.78,115.47 C293.1,116.01 294.9,116.28 297.18,116.28 C298.62,116.28 300.06,116.25 301.5,116.19 C302.94,116.13 304.38,115.92 305.82,115.56 L305.82,131.4 C303.54,131.64 301.32,131.88 299.16,132.12 C297,132.36 294.78,132.48 292.5,132.48 C287.1,132.48 282.75,131.97 279.45,130.95 C276.15,129.93 273.57,128.43 271.71,126.45 C269.85,124.47 268.59,121.98 267.93,118.98 C267.27,115.98 266.88,112.56 266.76,108.72 L266.76,53.82 L251.28,53.82 L251.28,38.52 Z" id="Path"></path>
            <path d="M311.4,38.52 L326.7,38.52 L326.7,30.78 C326.7,24.9 327.42,20.13 328.86,16.47 C330.3,12.81 332.22,9.99 334.62,8.01 C337.02,6.03 339.75,4.71 342.81,4.05 C345.87,3.39 349.08,3.06 352.44,3.06 C359.04,3.06 363.84,3.48 366.84,4.32 L366.84,20.34 C365.52,19.98 364.11,19.71 362.61,19.53 C361.11,19.35 359.34,19.26 357.3,19.26 C354.54,19.26 352.17,19.92 350.19,21.24 C348.21,22.56 347.22,25.14 347.22,28.98 L347.22,38.52 L364.68,38.52 L364.68,53.82 L347.22,53.82 L347.22,131.58 L326.7,131.58 L326.7,53.82 L311.4,53.82 L311.4,38.52 Z" id="Path"></path>
            <path d="M419.94,134.1 C412.5,134.1 405.87,132.87 400.05,130.41 C394.23,127.95 389.31,124.56 385.29,120.24 C381.27,115.92 378.21,110.76 376.11,104.76 C374.01,98.76 372.96,92.16 372.96,84.96 C372.96,77.88 374.01,71.34 376.11,65.34 C378.21,59.34 381.27,54.18 385.29,49.86 C389.31,45.54 394.23,42.15 400.05,39.69 C405.87,37.23 412.5,36 419.94,36 C427.38,36 434.01,37.23 439.83,39.69 C445.65,42.15 450.57,45.54 454.59,49.86 C458.61,54.18 461.67,59.34 463.77,65.34 C465.87,71.34 466.92,77.88 466.92,84.96 C466.92,92.16 465.87,98.76 463.77,104.76 C461.67,110.76 458.61,115.92 454.59,120.24 C450.57,124.56 445.65,127.95 439.83,130.41 C434.01,132.87 427.38,134.1 419.94,134.1 Z M419.94,117.9 C424.5,117.9 428.46,116.94 431.82,115.02 C435.18,113.1 437.94,110.58 440.1,107.46 C442.26,104.34 443.85,100.83 444.87,96.93 C445.89,93.03 446.4,89.04 446.4,84.96 C446.4,81 445.89,77.04 444.87,73.08 C443.85,69.12 442.26,65.61 440.1,62.55 C437.94,59.49 435.18,57 431.82,55.08 C428.46,53.16 424.5,52.2 419.94,52.2 C415.38,52.2 411.42,53.16 408.06,55.08 C404.7,57 401.94,59.49 399.78,62.55 C397.62,65.61 396.03,69.12 395.01,73.08 C393.99,77.04 393.48,81 393.48,84.96 C393.48,89.04 393.99,93.03 395.01,96.93 C396.03,100.83 397.62,104.34 399.78,107.46 C401.94,110.58 404.7,113.1 408.06,115.02 C411.42,116.94 415.38,117.9 419.94,117.9 Z" id="Shape"></path>
            <path d="M484.02,38.52 L503.28,38.52 L503.28,56.52 L503.64,56.52 C504.24,54 505.41,51.54 507.15,49.14 C508.89,46.74 510.99,44.55 513.45,42.57 C515.91,40.59 518.64,39 521.64,37.8 C524.64,36.6 527.7,36 530.82,36 C533.22,36 534.87,36.06 535.77,36.18 C536.67,36.3 537.6,36.42 538.56,36.54 L538.56,56.34 C537.12,56.1 535.65,55.89 534.15,55.71 C532.65,55.53 531.18,55.44 529.74,55.44 C526.26,55.44 522.99,56.13 519.93,57.51 C516.87,58.89 514.2,60.93 511.92,63.63 C509.64,66.33 507.84,69.66 506.52,73.62 C505.2,77.58 504.54,82.14 504.54,87.3 L504.54,131.58 L484.02,131.58 L484.02,38.52 Z" id="Path"></path>
            <path d="M547.38,38.52 L566.82,38.52 L566.82,51.48 L567.36,51.48 C568.92,49.2 570.6,47.1 572.4,45.18 C574.2,43.26 576.21,41.64 578.43,40.32 C580.65,39 583.2,37.95 586.08,37.17 C588.96,36.39 592.26,36 595.98,36 C601.62,36 606.87,37.26 611.73,39.78 C616.59,42.3 620.04,46.2 622.08,51.48 C625.56,46.68 629.58,42.9 634.14,40.14 C638.7,37.38 644.4,36 651.24,36 C661.08,36 668.73,38.4 674.19,43.2 C679.65,48 682.38,56.04 682.38,67.32 L682.38,131.58 L661.86,131.58 L661.86,77.22 C661.86,73.5 661.74,70.11 661.5,67.05 C661.26,63.99 660.57,61.35 659.43,59.13 C658.29,56.91 656.58,55.2 654.3,54 C652.02,52.8 648.9,52.2 644.94,52.2 C637.98,52.2 632.94,54.36 629.82,58.68 C626.7,63 625.14,69.12 625.14,77.04 L625.14,131.58 L604.62,131.58 L604.62,71.82 C604.62,65.34 603.45,60.45 601.11,57.15 C598.77,53.85 594.48,52.2 588.24,52.2 C585.6,52.2 583.05,52.74 580.59,53.82 C578.13,54.9 575.97,56.46 574.11,58.5 C572.25,60.54 570.75,63.06 569.61,66.06 C568.47,69.06 567.9,72.48 567.9,76.32 L567.9,131.58 L547.38,131.58 L547.38,38.52 Z" id="Path"></path>
            <path d="M721.62,88.74 C721.62,93.66 722.46,97.86 724.14,101.34 C725.82,104.82 728.16,107.67 731.16,109.89 C734.16,112.11 737.61,113.73 741.51,114.75 C745.41,115.77 749.64,116.28 754.2,116.28 C759.12,116.28 763.32,115.71 766.8,114.57 C770.28,113.43 773.1,111.96 775.26,110.16 C777.42,108.36 778.98,106.29 779.94,103.95 C780.9,101.61 781.38,99.24 781.38,96.84 C781.38,91.92 780.27,88.29 778.05,85.95 C775.83,83.61 773.4,81.96 770.76,81 C766.2,79.32 760.89,77.73 754.83,76.23 C748.77,74.73 741.3,72.78 732.42,70.38 C726.9,68.94 722.31,67.05 718.65,64.71 C714.99,62.37 712.08,59.76 709.92,56.88 C707.76,54 706.23,50.94 705.33,47.7 C704.43,44.46 703.98,41.16 703.98,37.8 C703.98,31.32 705.33,25.71 708.03,20.97 C710.73,16.23 714.3,12.3 718.74,9.18 C723.18,6.06 728.22,3.75 733.86,2.25 C739.5,0.75 745.2,0 750.96,0 C757.68,0 764.01,0.87 769.95,2.61 C775.89,4.35 781.11,6.96 785.61,10.44 C790.11,13.92 793.68,18.21 796.32,23.31 C798.96,28.41 800.28,34.32 800.28,41.04 L777.78,41.04 C777.18,32.76 774.36,26.91 769.32,23.49 C764.28,20.07 757.86,18.36 750.06,18.36 C747.42,18.36 744.72,18.63 741.96,19.17 C739.2,19.71 736.68,20.61 734.4,21.87 C732.12,23.13 730.23,24.84 728.73,27 C727.23,29.16 726.48,31.86 726.48,35.1 C726.48,39.66 727.89,43.23 730.71,45.81 C733.53,48.39 737.22,50.34 741.78,51.66 C742.26,51.78 744.15,52.29 747.45,53.19 C750.75,54.09 754.44,55.08 758.52,56.16 C762.6,57.24 766.59,58.29 770.49,59.31 C774.39,60.33 777.18,61.08 778.86,61.56 C783.06,62.88 786.72,64.68 789.84,66.96 C792.96,69.24 795.57,71.85 797.67,74.79 C799.77,77.73 801.33,80.88 802.35,84.24 C803.37,87.6 803.88,90.96 803.88,94.32 C803.88,101.52 802.41,107.67 799.47,112.77 C796.53,117.87 792.66,122.04 787.86,125.28 C783.06,128.52 777.6,130.89 771.48,132.39 C765.36,133.89 759.12,134.64 752.76,134.64 C745.44,134.64 738.54,133.74 732.06,131.94 C725.58,130.14 719.94,127.38 715.14,123.66 C710.34,119.94 706.5,115.17 703.62,109.35 C700.74,103.53 699.24,96.66 699.12,88.74 L721.62,88.74 Z" id="Path"></path>
            <path d="M883.44,69.66 C882.6,63.9 880.29,59.55 876.51,56.61 C872.73,53.67 867.96,52.2 862.2,52.2 C859.56,52.2 856.74,52.65 853.74,53.55 C850.74,54.45 847.98,56.13 845.46,58.59 C842.94,61.05 840.84,64.47 839.16,68.85 C837.48,73.23 836.64,78.96 836.64,86.04 C836.64,89.88 837.09,93.72 837.99,97.56 C838.89,101.4 840.33,104.82 842.31,107.82 C844.29,110.82 846.84,113.25 849.96,115.11 C853.08,116.97 856.86,117.9 861.3,117.9 C867.3,117.9 872.25,116.04 876.15,112.32 C880.05,108.6 882.48,103.38 883.44,96.66 L903.96,96.66 C902.04,108.78 897.45,118.05 890.19,124.47 C882.93,130.89 873.3,134.1 861.3,134.1 C853.98,134.1 847.53,132.87 841.95,130.41 C836.37,127.95 831.66,124.59 827.82,120.33 C823.98,116.07 821.07,111 819.09,105.12 C817.11,99.24 816.12,92.88 816.12,86.04 C816.12,79.08 817.08,72.54 819,66.42 C820.92,60.3 823.8,54.99 827.64,50.49 C831.48,45.99 836.25,42.45 841.95,39.87 C847.65,37.29 854.34,36 862.02,36 C867.42,36 872.55,36.69 877.41,38.07 C882.27,39.45 886.59,41.52 890.37,44.28 C894.15,47.04 897.24,50.52 899.64,54.72 C902.04,58.92 903.48,63.9 903.96,69.66 L883.44,69.66 Z" id="Path"></path>
            <path d="M920.7,38.52 L939.96,38.52 L939.96,56.52 L940.32,56.52 C940.92,54 942.09,51.54 943.83,49.14 C945.57,46.74 947.67,44.55 950.13,42.57 C952.59,40.59 955.32,39 958.32,37.8 C961.32,36.6 964.38,36 967.5,36 C969.9,36 971.55,36.06 972.45,36.18 C973.35,36.3 974.28,36.42 975.24,36.54 L975.24,56.34 C973.8,56.1 972.33,55.89 970.83,55.71 C969.33,55.53 967.86,55.44 966.42,55.44 C962.94,55.44 959.67,56.13 956.61,57.51 C953.55,58.89 950.88,60.93 948.6,63.63 C946.32,66.33 944.52,69.66 943.2,73.62 C941.88,77.58 941.22,82.14 941.22,87.3 L941.22,131.58 L920.7,131.58 L920.7,38.52 Z" id="Path"></path>
            <path d="M984.6,3.06 L1005.12,3.06 L1005.12,22.5 L984.6,22.5 L984.6,3.06 Z M984.6,38.52 L1005.12,38.52 L1005.12,131.58 L984.6,131.58 L984.6,38.52 Z" id="Shape"></path>
            <path d="M1027.98,38.52 L1047.42,38.52 L1047.42,51.12 L1047.78,51.12 C1050.66,45.72 1054.68,41.85 1059.84,39.51 C1065,37.17 1070.58,36 1076.58,36 C1083.9,36 1090.29,37.29 1095.75,39.87 C1101.21,42.45 1105.74,45.99 1109.34,50.49 C1112.94,54.99 1115.64,60.24 1117.44,66.24 C1119.24,72.24 1120.14,78.66 1120.14,85.5 C1120.14,91.74 1119.33,97.8 1117.71,103.68 C1116.09,109.56 1113.63,114.75 1110.33,119.25 C1107.03,123.75 1102.86,127.35 1097.82,130.05 C1092.78,132.75 1086.84,134.1 1080,134.1 C1077,134.1 1074,133.83 1071,133.29 C1068,132.75 1065.12,131.88 1062.36,130.68 C1059.6,129.48 1057.05,127.95 1054.71,126.09 C1052.37,124.23 1050.42,122.04 1048.86,119.52 L1048.5,119.52 L1048.5,165.96 L1027.98,165.96 L1027.98,38.52 Z M1099.62,85.14 C1099.62,80.94 1099.08,76.86 1098,72.9 C1096.92,68.94 1095.3,65.43 1093.14,62.37 C1090.98,59.31 1088.28,56.85 1085.04,54.99 C1081.8,53.13 1078.08,52.2 1073.88,52.2 C1065.24,52.2 1058.73,55.2 1054.35,61.2 C1049.97,67.2 1047.78,75.18 1047.78,85.14 C1047.78,89.82 1048.35,94.17 1049.49,98.19 C1050.63,102.21 1052.34,105.66 1054.62,108.54 C1056.9,111.42 1059.63,113.7 1062.81,115.38 C1065.99,117.06 1069.68,117.9 1073.88,117.9 C1078.56,117.9 1082.52,116.94 1085.76,115.02 C1089,113.1 1091.67,110.61 1093.77,107.55 C1095.87,104.49 1097.37,101.01 1098.27,97.11 C1099.17,93.21 1099.62,89.22 1099.62,85.14 Z" id="Shape"></path>
            <path d="M1128.06,38.52 L1143.54,38.52 L1143.54,10.62 L1164.06,10.62 L1164.06,38.52 L1182.6,38.52 L1182.6,53.82 L1164.06,53.82 L1164.06,103.5 C1164.06,105.66 1164.15,107.52 1164.33,109.08 C1164.51,110.64 1164.93,111.96 1165.59,113.04 C1166.25,114.12 1167.24,114.93 1168.56,115.47 C1169.88,116.01 1171.68,116.28 1173.96,116.28 C1175.4,116.28 1176.84,116.25 1178.28,116.19 C1179.72,116.13 1181.16,115.92 1182.6,115.56 L1182.6,131.4 C1180.32,131.64 1178.1,131.88 1175.94,132.12 C1173.78,132.36 1171.56,132.48 1169.28,132.48 C1163.88,132.48 1159.53,131.97 1156.23,130.95 C1152.93,129.93 1150.35,128.43 1148.49,126.45 C1146.63,124.47 1145.37,121.98 1144.71,118.98 C1144.05,115.98 1143.66,112.56 1143.54,108.72 L1143.54,53.82 L1128.06,53.82 L1128.06,38.52 Z" id="Path"></path>
        </g>
    </g>
</svg>